# xmcd
#
# Track frame offsets:
#	150
#	28764
#	55183
#	80019
#	109602
#	141246
#	169890
#	197729
#	221618
#	252768
#	277695
#	307248
#
# Disc length: 4635 seconds
#
# Revision: 1
# Processed by: cddbd v1.5.2PL0 Copyright (c) Steve Scherf et al.
# Submitted via: audiograbber 1.83.01
#
DISCID=ac12190c
DTITLE=Anna König - Ian McEvan: Der Tagträumer
DYEAR=2009
DGENRE=Hörbuch
TTITLE0=Peter wird vorgestellt
TTITLE1=Peter wird vorgestellt
TTITLE2=Peter wird vorgestellt
TTITLE3=Die Puppen
TTITLE4=Die Puppen
TTITLE5=Die Puppen
TTITLE6=Die Puppen
TTITLE7=Der Kater
TTITLE8=Der Kater
TTITLE9=Der Kater
TTITLE10=Der Kater
TTITLE11=Der Kater
EXTD=
EXTT0=
EXTT1=
EXTT2=
EXTT3=
EXTT4=
EXTT5=
EXTT6=
EXTT7=
EXTT8=
EXTT9=
EXTT10=
EXTT11=
PLAYORDER=
